<svg xmlns="http://www.w3.org/2000/svg" xmlns:xlink="http://www.w3.org/1999/xlink" width="320" height="320" viewBox="0 0 320 320"><defs><clipPath id="a"><circle cx="160" cy="160" r="160" transform="translate(11113 4536)" fill="rgba(33,43,70,0.35)"/></clipPath></defs><g transform="translate(-11113 -4536)"><circle cx="160" cy="160" r="160" transform="translate(11113 4536)" fill="#f2f4fa"/><g clip-path="url(#a)"><path d="M290.121,259.7H0V232.458c0-14.289,4.242-19.5,14.979-27.8,23.705-18.312,59.069-29.959,95.948-40.09,6.569-1.806,5.09-2.521,5.2-9.235.121-6.763,0-6.132-4.933-10.289C70.255,110.478,73.454,7.235,145.067,0c71.6,7.235,74.8,110.478,33.861,145.042C174,149.2,173.874,148.569,174,155.332c.109,6.726-1.369,7.429,5.2,9.235,36.879,10.132,72.242,21.778,95.948,40.09,10.738,8.3,14.979,13.513,14.979,27.8Z" transform="translate(11127.939 4596.298)" fill="#f27c00" fill-rule="evenodd"/></g></g></svg>